<?xml version="1.0" encoding="utf-8"?>
<svg version="1.1" xmlns="http://www.w3.org/2000/svg" viewBox="0 0 1000 1000">
<path d="M716.9,394.7v-86.4l28.6,3.4v-64.8l-345.7-52.9L10,268.2v75.7l36.1-5v210.4H151v196.4l497.7,60.3l88-10.7V543.3l156.4,0.5v232.6l72.7-8.8V460.2l24.3,1.2v-46.1L716.9,394.7z M681.7,338.2V414l-104.1,1.9v-88.3L681.7,338.2z M100.3,350.6l236.4-30v168.7l-236.4,7.8V350.6z M197.4,701.1V549.3h97.4v160.6L197.4,701.1z M319.6,711.6V549.2h80.2v-0.3h32.6v172.9L319.6,711.6z M456.1,725V549h131.3v187.9L456.1,725z" fill="#d6d6d6"/>
</svg>
