<?xml version="1.0" encoding="UTF-8"?>
<!-- Created with Inkscape (http://www.inkscape.org/) -->
<svg width="148" height="282" version="1.1" viewBox="0 0 39.158 74.613" xmlns="http://www.w3.org/2000/svg" xmlns:cc="http://creativecommons.org/ns#" xmlns:dc="http://purl.org/dc/elements/1.1/" xmlns:rdf="http://www.w3.org/1999/02/22-rdf-syntax-ns#">
 <metadata>
  <rdf:RDF>
   <cc:Work rdf:about="">
    <dc:format>image/svg+xml</dc:format>
    <dc:type rdf:resource="http://purl.org/dc/dcmitype/StillImage"/>
    <dc:title/>
   </cc:Work>
  </rdf:RDF>
 </metadata>
 <g transform="translate(-87.292 -87.86)">
  <path d="m125.03 89.341-2.2973 2.3819 0.51104 1.1914-0.93584-0.85119-1.1059 1.1913 0.76575 2.1264-1.2768-1.3606-5.9552 6.6355 0.93583 3.2331-1.7008-1.9571s-3.4501 3.8302-5.0201 5.8705c-1.7653 2.2942-3.3086 4.7503-4.9339 7.1457-1.0907 1.6076-3.2331 4.8493-3.2331 4.8493l0.76575 1.4469-0.8504-0.51104 0.93584 2.5528-1.5315-1.7016s-2.1451 4.0351-3.063 6.1252c-1.025 2.3339-1.9779 4.7085-2.7221 7.1465-0.36547 1.1974-0.8504 3.6579-0.8504 3.6579l1.9563 2.6374-2.3819-1.4469s-0.22177 2.6158-0.08544 3.9134c0.1035 0.98509 0.68112 2.8929 0.68112 2.8929s-0.69714 0.94349-1.1059 1.3614c-0.52048 0.53216-1.0509 1.0846-1.7016 1.4461-0.65069 0.36148-2.1272 0.68031-2.1272 0.68031s0.61353 1.9641 0.76575 2.9776c0.18132 1.2072 0.16205 2.438 0.17008 3.6587 0.0055 0.8512 0.09023 1.7189-0.08464 2.552-0.1255 0.59783-0.68112 1.7016-0.68112 1.7016l0.51024 0.25472 3.4886-7.3158 0.103 0.0456a0.89328 0.89328 0 0 1-0.27309-0.64118 0.89328 0.89328 0 0 1 0.89272-0.89353 0.89328 0.89328 0 0 1 0.89352 0.89353 0.89328 0.89328 0 0 1-0.89352 0.89351 0.89328 0.89328 0 0 1-0.05909-3e-3l0.10221 0.0456-3.5733 6.891 0.68032 0.0846s0.58372-0.93733 0.93583-1.3606c0.58987-0.70913 1.2262-1.3945 1.9571-1.9571 1.1177-0.86035 2.3685-1.5547 3.6579-2.1264 0.59851-0.26537 1.8717-0.59568 1.8717-0.59568s-0.43872-0.65991-0.59568-1.0213c-0.11797-0.27156-0.20668-0.55825-0.25472-0.85039-0.1335-0.81197-0.09865-1.6446-0.08544-2.4674 0.0068-0.42627 0.08544-1.276 0.08544-1.276s0.95477-0.47418 1.4461-0.68031c0.75289-0.31591 1.6241-0.38792 2.2965-0.85119 0.49645-0.3421 0.84154-0.86959 1.1914-1.3606 0.13275-0.18621 0.34018-0.59567 0.34018-0.59567l-3.6579 1.276s2.3254-1.1424 3.3177-1.9571c0.82274-0.67543 1.4649-1.5486 2.1272-2.3819 1.0256-1.2904 1.9622-2.6523 2.8498-4.0412 1.2075-1.8895 2.2123-3.9011 3.3601-5.8274 0.44314-0.74372 0.9453-1.4527 1.3614-2.2118 1.4692-2.6804 2.722-5.4749 3.9981-8.2524 0.89075-1.9388 2.5528-5.8697 2.5528-5.8697l-1.6169-0.25551 1.8717-0.51024s0.6505-2.1481 0.93584-3.2331c0.28166-1.071 0.76575-3.2323 0.76575-3.2323l-1.5315-0.0855 1.787-0.59567 0.0854-1.1059-2.7229 0.42561 2.9776-1.3614s0.83444-3.5645 1.1914-5.3595c0.41552-2.0897 1.1059-6.2953 1.1059-6.2953z" fill="#91777e" stroke="#000" stroke-width=".20441"/>
 </g>
</svg>
